<svg xmlns="http://www.w3.org/2000/svg" xmlns:xlink="http://www.w3.org/1999/xlink" width="116.49539" height="98.4459" viewBox="0 0 116.49539 98.4459">
  <defs>
    <clipPath id="a" transform="translate(-337.757 -256.9836)">
      <rect x="325.60259" y="248.5967" width="140.7948" height="114.8066" style="fill: none"/>
    </clipPath>
  </defs>
  <g style="clip-path: url(#a)">
    <path d="M376.70639,345.3885a4.50844,4.50844,0,0,1,1.97761.4062,4.21286,4.21286,0,0,1,1.41989,1.0948v-6.2676h1.6635v14.6045h-1.6635v-1.2881a4.27445,4.27445,0,0,1-1.41989,1.085,4.50844,4.50844,0,0,1-1.97761.4062,4.78071,4.78071,0,0,1-1.8965-.376,4.62962,4.62962,0,0,1-1.5317-1.0439,4.865,4.865,0,0,1-1.0191-1.5879,5.6607,5.6607,0,0,1,0-4.0264,4.871,4.871,0,0,1,1.0191-1.5869,4.6473,4.6473,0,0,1,1.5317-1.0449A4.79759,4.79759,0,0,1,376.70639,345.3885Zm.1929,1.5625a3.35636,3.35636,0,0,0-1.36429.2686,3.10015,3.10015,0,0,0-1.04981.7402,3.28694,3.28694,0,0,0-.6694,1.1006,3.8474,3.8474,0,0,0-.2329,1.3486,3.763,3.763,0,0,0,.2383,1.3486,3.337,3.337,0,0,0,.6743,1.1006,3.16676,3.16676,0,0,0,1.0498.7451,3.28163,3.28163,0,0,0,1.354.2745,3.33015,3.33015,0,0,0,1.3384-.2637,3.09511,3.09511,0,0,0,1.0449-.7305,3.34354,3.34354,0,0,0,.6792-1.1006,3.98293,3.98293,0,0,0,0-2.7431,3.37215,3.37215,0,0,0-.6792-1.0957,3.10519,3.10519,0,0,0-1.0449-.7295A3.33015,3.33015,0,0,0,376.89929,346.951Zm12.2715-1.5625a4.47267,4.47267,0,0,1,1.8154.3652,4.17226,4.17226,0,0,1,1.4297,1.0244,4.79888,4.79888,0,0,1,.9385,1.5772,5.96459,5.96459,0,0,1,.34961,2.0234q0,.1626-.01031.3194c-.0068.1045-.01369.2041-.02.2988h-7.5762a3.83064,3.83064,0,0,0,.3804,1.3086,3.08716,3.08716,0,0,0,.72511.9326,2.87422,2.87422,0,0,0,.99409.5586,3.773,3.773,0,0,0,1.1763.1826,4.21825,4.21825,0,0,0,1.6025-.3047,4.8691,4.8691,0,0,0,1.3692-.8418l.8823,1.1358a5.48468,5.48468,0,0,1-.9228.7002,5.03648,5.03648,0,0,1-.9737.4511,5.583,5.583,0,0,1-1.0141.2383,7.74777,7.74777,0,0,1-1.045.0713,5.24905,5.24905,0,0,1-1.9726-.3603,4.4469,4.4469,0,0,1-1.5464-1.0245,4.66806,4.66806,0,0,1-1.0093-1.5869,5.9687,5.9687,0,0,1,0-4.082,4.699,4.699,0,0,1,.999-1.5879,4.55062,4.55062,0,0,1,1.5162-1.0293A4.88024,4.88024,0,0,1,389.17079,345.3885Zm-.03079,1.4707a3.07561,3.07561,0,0,0-1.15621.208,2.73434,2.73434,0,0,0-.8975.5781,3.13583,3.13583,0,0,0-.6289.8819,3.87028,3.87028,0,0,0-.33939,1.1308h5.89209a3.93323,3.93323,0,0,0-.3193-1.1552,2.95827,2.95827,0,0,0-.6084-.8829,2.59736,2.59736,0,0,0-.8623-.5625A2.87,2.87,0,0,0,389.14,346.8592Zm12.23189-1.4707a4.75561,4.75561,0,0,1,1.8907.375,4.65631,4.65631,0,0,1,1.52541,1.0449,4.926,4.926,0,0,1,1.02529,1.5869,5.59147,5.59147,0,0,1,0,4.0264,4.91971,4.91971,0,0,1-1.02529,1.5879,4.63846,4.63846,0,0,1-1.52541,1.0439,4.73891,4.73891,0,0,1-1.8907.376,4.52912,4.52912,0,0,1-1.9882-.4062,4.15863,4.15863,0,0,1-1.4102-1.085v1.2881h-1.6533V340.6219h1.6533v6.2578a4.15988,4.15988,0,0,1,1.4102-1.085A4.52912,4.52912,0,0,1,401.37189,345.3885Zm-.1933,1.5625a3.34091,3.34091,0,0,0-1.3399.2637,3.09112,3.09112,0,0,0-1.0429.7295,3.36491,3.36491,0,0,0-.6797,1.0957,3.97375,3.97375,0,0,0,0,2.7431,3.33645,3.33645,0,0,0,.6797,1.1006,3.08112,3.08112,0,0,0,1.0429.7305,3.34091,3.34091,0,0,0,1.3399.2637,3.27821,3.27821,0,0,0,1.35941-.2745,3.20249,3.20249,0,0,0,1.04489-.7451,3.28078,3.28078,0,0,0,.6679-1.1006,3.82533,3.82533,0,0,0,.2344-1.3486,3.78466,3.78466,0,0,0-.2383-1.3486,3.36484,3.36484,0,0,0-.6757-1.1006,3.12628,3.12628,0,0,0-1.043-.7402A3.29775,3.29775,0,0,0,401.17859,346.951Zm8.4375-5.9336a1.19293,1.19293,0,0,1,.8418.3447,1.16571,1.16571,0,0,1,.3457.8418,1.159,1.159,0,0,1-.0918.4571,1.13163,1.13163,0,0,1-.63379.6132,1.23866,1.23866,0,0,1-.46191.086,1.2016,1.2016,0,0,1-.45609-.086,1.10821,1.10821,0,0,1-.37011-.2431,1.17842,1.17842,0,0,1-.248-.3701,1.13991,1.13991,0,0,1-.0918-.4571,1.16324,1.16324,0,0,1,.0918-.4668,1.235,1.235,0,0,1,.248-.375,1.14723,1.14723,0,0,1,.8262-.3447Zm.8418,14.209h-1.6524v-9.6348h1.6524Zm9.8877-8.124h-4.0469v4.6963a2.8252,2.8252,0,0,0,.1377.9375,1.74481,1.74481,0,0,0,.3799.6445,1.50905,1.50905,0,0,0,.5732.375,2.07925,2.07925,0,0,0,.7246.1221,3.07735,3.07735,0,0,0,1.045-.1827,4.08747,4.08747,0,0,0,.9228-.4668l.7813,1.2471a5.45765,5.45765,0,0,1-1.2784.6797,4.5034,4.5034,0,0,1-1.6123.2744,4.18853,4.18853,0,0,1-1.3994-.2187,2.64858,2.64858,0,0,1-1.0498-.6641,2.94484,2.94484,0,0,1-.6592-1.1201,4.99739,4.99739,0,0,1-.2285-1.5977v-4.7265H412.577v-1.5108h2.05859v-3.0224h1.6631v3.0224h4.0469Z" transform="translate(-337.757 -256.9836)"/>
    <g>
      <rect x="42.41709" y="7.6951" width="31.4973" height="56.6087" style="fill: #ff5f00"/>
      <path d="M382.25239,292.9836a35.93459,35.93459,0,0,1,13.7527-28.3038,36,36,0,1,0,0,56.6076,35.93474,35.93474,0,0,1-13.7527-28.3038" transform="translate(-337.757 -256.9836)" style="fill: #eb001b"/>
      <path d="M450.81509,315.2901v-1.1586h.4675v-.2358h-1.1895v.2358h.4675v1.1586Zm2.311,0v-1.3964h-.3646l-.4203.9608-.4191-.9608h-.3646v1.3964h.2574v-1.0535l.3924.9083h.2679l.3933-.9104v1.0556Z" transform="translate(-337.757 -256.9836)" style="fill: #f79e1b"/>
      <path d="M418.25229,256.9836a35.84478,35.84478,0,0,0-22.2481,7.6962,36.0014,36.0014,0,0,1,0,56.6076,36.00051,36.00051,0,1,0,22.2481-64.3038" transform="translate(-337.757 -256.9836)" style="fill: #f79e1b"/>
    </g>
  </g>
</svg>
