<?xml version="1.0" encoding="iso-8859-1"?>
<!-- Uploaded to: SVG Repo, www.svgrepo.com, Generator: SVG Repo Mixer Tools -->
<svg height="800px" width="800px" version="1.1" id="Layer_1" xmlns="http://www.w3.org/2000/svg" xmlns:xlink="http://www.w3.org/1999/xlink" 
	 viewBox="0 0 503.354 503.354" xml:space="preserve">
<path style="fill:#00ADE5;" d="M3.088,485.983c0,9.546,7.81,17.356,17.356,17.356h112.814c0,0,26.034,1.736,32.108-31.241
	l21.695-92.854c0,0,6.942-26.902,35.58-26.902c29.505,0,230.834,7.81,275.091-134.508c9.546-32.108-5.207-115.417-46.861-156.203
	c24.298,38.183,17.356,85.044,8.678,112.814C415.291,317.63,213.962,309.82,185.325,309.82c-29.505,0-38.183,26.034-38.183,26.034
	l-21.695,92.854c-6.075,32.108-33.844,31.241-33.844,31.241H25.65c-26.034,0-22.563-22.563-22.563-22.563V485.983z"/>
<path style="fill:#004398;" d="M127.183,429.576l21.695-92.854c0,0,6.942-26.034,35.58-26.034
	c29.505,0,230.834,7.81,275.091-134.508C476.905,123.244,488.186,0.017,284.254,0.017H137.596c0,0-30.373-1.736-38.183,30.373
	L3.088,434.783c0,0-4.339,25.166,22.563,25.166h65.953C90.735,459.949,121.108,461.684,127.183,429.576"/>
<path style="fill:#FFFFFF;" d="M182.721,194.403l19.092-82.441c0,0,6.075-22.563,26.034-26.034s54.671,0.868,63.349,2.603
	c57.275,10.414,45.125,63.349,45.125,63.349c-11.281,81.573-141.451,70.292-141.451,70.292
	C174.911,214.362,182.721,194.403,182.721,194.403"/>
</svg>