<?xml version="1.0" encoding="utf-8"?>
<!-- Generator: Adobe Illustrator 19.2.1, SVG Export Plug-In . SVG Version: 6.00 Build 0)  -->
<svg version="1.1" id="layer" xmlns="http://www.w3.org/2000/svg" xmlns:xlink="http://www.w3.org/1999/xlink" x="0px" y="0px"
	 viewBox="0 0 652 652" style="enable-background:new 0 0 652 652;" xml:space="preserve">
<style type="text/css">
	.st0{fill:#00A2C7;}
</style>
<path class="st0" d="M196.9,285.4c-31.8,0-57.8,26-57.8,57.8s26,57.8,57.8,57.8s57.8-26,57.8-57.8S228.7,285.4,196.9,285.4z
	 M225.1,342.5c0,15.9-12.3,28.9-27.5,28.9s-27.5-13-27.5-28.9s12.3-28.9,27.5-28.9S225.1,326.6,225.1,342.5z M399.3,287.5
	c-0.7-0.7-1.4-0.7-2.2-0.7H374c-1.4,0-2.9,1.4-2.9,2.9v104.8c0,0.7,0,1.4,0.7,2.2c0.7,0.7,1.4,0.7,2.2,0.7h23.1
	c1.4,0,2.9-1.4,2.9-2.9V289.7C400.1,289,400.1,288.3,399.3,287.5z M385.6,273.1c8.7,0,15.9-7.2,15.9-15.9
	c0.7-8.7-7.2-15.9-15.9-15.9c-8.7,0-15.9,7.2-15.9,15.9C369.7,266.6,376.9,273.1,385.6,273.1z M354.5,243.4H270
	c-1.4,0-2.9,1.4-2.9,2.9v148.2c0,0.7,0,1.4,0.7,2.2c0.7,0.7,1.4,0.7,2.2,0.7h23.1c1.4,0,2.9-1.4,2.9-2.9v-60h52c0.7,0,1.4,0,2.2-0.7
	c0.7-0.7,0.7-1.4,0.7-2.2V310c0-1.4-1.4-2.9-2.9-2.9h-52v-36.1h58.6c0.7,0,1.4,0,2.2-0.7s0.7-1.4,0.7-2.2v-21.7
	C357.4,244.9,356,243.4,354.5,243.4z M84.9,307.8c-23.1-10.1-30.4-14.5-30.4-23.1c0-11.6,10.8-15.2,21-15.2
	c10.8,0,22.4,5.8,22.4,21.7c0,1.4,0.7,2.2,2.2,2.2h25.3c0.7-0.7,1.4-1.4,1.4-2.2c0-28.9-21-49.9-51.3-49.9
	c-30.4,0-49.9,17.3-49.9,43.4c0,31.1,23.1,40.5,45.5,49.2l1.4,0.7c21,8,28.2,11.6,28.2,21.7c0,13.7-14.5,15.9-22.4,15.9
	c-15.2,0-26.7-10.8-26.7-25.3v-1.4c0-1.4-0.7-2.2-2.2-2.2H24.2c-0.7,0-2.2,0.7-2.2,2.2v2.2c0,31.8,23.1,53.5,55.7,53.5
	c31.1,0,52-18.1,52-44.1C130.4,330.2,116.7,320.8,84.9,307.8z M622,393.1c0,4.3-2.9,7.2-7.2,7.2s-7.2-2.9-7.2-7.2
	c0-4.3,2.9-7.2,7.2-7.2S622,388.7,622,393.1z M609,393.1c0,3.6,2.2,5.8,5.8,5.8c3.6,0,5.8-2.2,5.8-5.8c0-3.6-2.2-5.8-5.8-5.8
	C611.2,387.3,609,389.5,609,393.1z M617.7,391.6c0,0.7-0.7,1.4-1.4,2.2l1.4,2.9h-2.2l-1.4-2.9h-0.7v2.9h-1.4v-7.2h2.9
	C616.2,389.5,617.7,390.2,617.7,391.6z M614,390.9v2.2h0.7c0.7,0,1.4-0.7,1.4-0.7c0-0.7-0.7-0.7-1.4-0.7H614V390.9z M584.4,247.8
	c10.1,0,18.1,8,18.1,18.1c0,10.1-8,18.1-18.1,18.1s-18.1-8-18.1-18.1C566.3,255.7,574.3,247.8,584.4,247.8 M584.4,241.3
	c-13.7,0-25.3,11.6-25.3,25.3c0,13.7,11.6,25.3,25.3,25.3c13.7,0,25.3-11.6,25.3-25.3C609.7,252.8,598.1,241.3,584.4,241.3z"/>
<path class="st0" d="M530.2,302.7c5.1,0,9.4,2.2,13,5.1c3.6,3.6,5.1,8,5.1,13c0,10.1-8,18.1-18.1,18.1c-5.1,0-9.4-2.2-13-5.1
	c-3.6-3.6-5.1-8-5.1-13C511.4,310.7,520.1,302.7,530.2,302.7 M530.2,295.5c-13.7,0-25.3,11.6-25.3,25.3c0,13.7,11.6,25.3,25.3,25.3
	c13.7,0,25.3-11.6,25.3-25.3C555.5,307.1,543.9,295.5,530.2,295.5z"/>
<path class="st0" d="M572.3,298.5c12.3-6.7,27.6-2.1,34.3,10.1s2.1,27.6-10.1,34.3c-12.3,6.7-27.6,2.1-34.3-10.1
	S560,305.2,572.3,298.5z M572.2,352.7c12.3-6.7,27.6-2.1,34.3,10.1c6.7,12.3,2.1,27.6-10.1,34.3s-27.6,2.1-34.3-10.1
	C555.4,374.8,560,359.4,572.2,352.7z M452.7,310.3c5.7-12.8,20.6-18.5,33.4-12.9c12.8,5.7,18.5,20.6,12.9,33.4s-20.6,18.5-33.4,12.9
	C452.8,338.1,447,323.1,452.7,310.3z M507,256.2c5.7-12.8,20.6-18.5,33.4-12.9c12.8,5.7,18.5,20.6,12.9,33.4
	c-5.7,12.8-20.6,18.5-33.4,12.9S501.3,268.9,507,256.2z M452.7,256.1c5.7-12.8,20.6-18.5,33.4-12.9c12.8,5.7,18.5,20.6,12.9,33.4
	s-20.6,18.5-33.4,12.9C452.9,283.8,447.1,268.9,452.7,256.1z M506.9,364.7c5.7-12.8,20.6-18.5,33.4-12.9
	c12.8,5.7,18.5,20.6,12.9,33.4c-5.7,12.8-20.6,18.5-33.4,12.9C507,392.4,501.2,377.5,506.9,364.7z"/>
<path class="st0" d="M476,356.9c5.1,0,9.4,2.2,13,5.1c3.6,3.6,5.1,8,5.1,13c0,10.1-8,18.1-18.1,18.1c-10.1,0-18.1-8-18.1-18.1
	C457.2,364.9,465.9,356.9,476,356.9 M476,349.7c-13.7,0-25.3,11.6-25.3,25.3c0,13.7,11.6,25.3,25.3,25.3s25.3-11.6,25.3-25.3
	C501.3,361.3,489.7,349.7,476,349.7z"/>
</svg>
